<?xml version="1.0" encoding="UTF-8"?>
<svg width="11px" height="20px" viewBox="0 0 11 20" version="1.1" xmlns="http://www.w3.org/2000/svg" xmlns:xlink="http://www.w3.org/1999/xlink">
    <!-- Generator: Sketch 49.2 (51160) - http://www.bohemiancoding.com/sketch -->
    <title>Shape</title>
    <desc>Created with Sketch.</desc>
    <defs></defs>
    <g id="Page-1" stroke="none" stroke-width="1" fill="none" fill-rule="evenodd">
        <g id="facebook_" fill="#3f51b5" fill-rule="nonzero">
            <path d="M10.094,0.138 L10.094,3.163 L8.26,3.163 C7.59,3.163 7.138,3.3 6.905,3.575 C6.671,3.85 6.555,4.262 6.555,4.812 L6.555,6.978 L9.977,6.978 L9.522,10.37 L6.554,10.37 L6.554,19.067 L2.98,19.067 L2.98,10.37 L0,10.37 L0,6.978 L2.98,6.978 L2.98,4.48 C2.98,3.06 3.384,1.957 4.194,1.174 C5.004,0.39 6.084,0 7.43,0 C8.575,0 9.463,0.046 10.094,0.138 Z" id="Shape"></path>
        </g>
    </g>
</svg>
