<?xml version="1.0" encoding="UTF-8"?>
<svg width="20px" height="16px" viewBox="0 0 20 16" version="1.1" xmlns="http://www.w3.org/2000/svg" xmlns:xlink="http://www.w3.org/1999/xlink">
    <!-- Generator: Sketch 49.2 (51160) - http://www.bohemiancoding.com/sketch -->
    <title>Slice 1</title>
    <desc>Created with Sketch.</desc>
    <defs></defs>
    <g id="Page-1" stroke="none" stroke-width="1" fill="none" fill-rule="evenodd">
        <g id="twitter" fill="#3f51b5" fill-rule="nonzero">
            <path d="M20,2.328 C19.3,2.638 18.55,2.848 17.76,2.941 C18.5749685,2.45542191 19.1847663,1.68917444 19.475,0.786 C18.7102612,1.24095307 17.8731074,1.56127012 17,1.733 C15.9059069,0.565498411 14.2095898,0.184935368 12.7216061,0.773156677 C11.2336224,1.36137799 10.2560477,2.79896883 10.256,4.399 C10.256,4.705 10.291,5.002 10.356,5.289 C7.22196403,5.13082945 4.30227914,3.65008798 2.323,1.215 C1.28531757,2.99560706 1.81386647,5.27634375 3.529,6.419 C2.90966426,6.39941961 2.30391983,6.23247137 1.762,5.932 L1.762,5.982 C1.76229796,7.83769713 3.07011883,9.43619133 4.889,9.804 C4.31525877,9.96116698 3.71302953,9.98409275 3.129,9.871 C3.63942373,11.4581601 5.10208133,12.5455094 6.769,12.577 C5.38869897,13.6606395 3.68384909,14.2481786 1.929,14.245 C1.614,14.245 1.304,14.227 0.999,14.191 C2.7811478,15.3365508 4.85543109,15.9447758 6.974,15.943 C14.144,15.943 18.064,10.003 18.064,4.851 C18.064,4.681 18.061,4.514 18.054,4.347 C18.8170901,3.7952463 19.4757239,3.11189255 19.999,2.329" id="Shape"></path>
        </g>
    </g>
</svg>
